<?xml version="1.0" encoding="utf-8"?>
<!-- Generator: Adobe Illustrator 16.0.0, SVG Export Plug-In . SVG Version: 6.00 Build 0)  -->
<!DOCTYPE svg PUBLIC "-//W3C//DTD SVG 1.1//EN" "http://www.w3.org/Graphics/SVG/1.1/DTD/svg11.dtd">
<svg version="1.1" id="Layer_1" xmlns="http://www.w3.org/2000/svg" xmlns:xlink="http://www.w3.org/1999/xlink" x="0px" y="0px"
	 width="50px" height="50px" viewBox="0 0 50 50" enable-background="new 0 0 50 50" xml:space="preserve">
<path fill="#96352F" d="M6.247,36.479c-8.33-8.345-8.329-21.875,0-30.22c8.33-8.345,21.834-8.345,30.165,0
	c8.328,8.345,8.328,21.875,0,30.22C28.081,44.825,14.577,44.825,6.247,36.479z"/>
<path fill="#FFFFFF" d="M22.187,39.378l3.589-1.108c1.477-0.37,2.93-0.935,4.322-1.719c8.382-4.721,11.368-15.396,6.655-23.793
	C32.041,4.36,21.387,1.367,13.005,6.09C4.621,10.811,1.636,21.484,6.349,29.882c2.302,4.106,6.029,6.917,10.214,8.168l3.775,0.89"/>
<path fill="#96352F" d="M8.923,28.431C5.008,21.457,7.49,12.592,14.452,8.669c6.964-3.92,15.811-1.435,19.726,5.54
	c3.913,6.976,1.434,15.84-5.528,19.763c-1.731,0.974-3.579,1.552-5.438,1.765l-1.029-1.017l-0.003-3.903
	c1.303-0.108,2.604-0.483,3.818-1.166c4.531-2.552,6.144-8.322,3.596-12.86c-2.545-4.54-8.304-6.155-12.834-3.603
	c-4.53,2.551-6.145,8.319-3.597,12.857c1.541,2.747,4.26,4.415,7.17,4.747l0.003,3.605l-1.254,1.214
	C14.939,34.89,11.14,32.383,8.923,28.431z"/>
<path fill="#96352F" d="M15.736,24.594c-1.749-3.116-0.64-7.075,2.47-8.828c3.109-1.751,7.065-0.642,8.813,2.475
	c1.747,3.116,0.639,7.078-2.471,8.829c-0.755,0.425-1.561,0.678-2.374,0.779l-0.003-3.711c0.201-0.058,0.398-0.139,0.587-0.244
	c1.344-0.757,1.82-2.463,1.066-3.807c-0.755-1.347-2.458-1.825-3.802-1.067c-1.342,0.756-1.819,2.46-1.064,3.806
	c0.319,0.569,0.808,0.979,1.365,1.21l0.003,3.772C18.458,27.498,16.737,26.377,15.736,24.594z"/>
<path fill="#FFFFFF" d="M44.782,49.936c2.889,0,5.233-0.66,5.233-3.909v-1.72c0-0.135-0.019-0.272-0.019-0.406V32.461
	c0-1.526-1.501-2.76-3.344-2.76c-1.841,0-3.342,1.233-3.342,2.76v5.961H41.67v-5.961c0-1.526-1.495-2.76-3.332-2.76
	c-1.849,0-3.345,1.233-3.345,2.76v5.961h-1.641v-5.961c0-1.526-1.493-2.76-3.33-2.76c-1.854,0-3.342,1.233-3.342,2.76v5.961h-1.647
	V19.846c0-1.524-1.501-2.763-3.328-2.763c-1.844,0-3.352,1.239-3.352,2.763v24.443c0,0.103,0.031,0.203,0.042,0.306v1.432
	c0,3.249,2.34,3.909,5.235,3.909H44.782z"/>
</svg>
