<?xml version="1.0" encoding="utf-8"?>
<!-- Generator: Adobe Illustrator 16.0.0, SVG Export Plug-In . SVG Version: 6.00 Build 0)  -->
<!DOCTYPE svg PUBLIC "-//W3C//DTD SVG 1.1//EN" "http://www.w3.org/Graphics/SVG/1.1/DTD/svg11.dtd">
<svg version="1.1" id="Layer_1" xmlns="http://www.w3.org/2000/svg" xmlns:xlink="http://www.w3.org/1999/xlink" x="0px" y="0px"
	 width="112px" height="101px" viewBox="0 0 112 101" enable-background="new 0 0 112 101" xml:space="preserve">
<g>
	<path fill="#8E261F" d="M69.232,54.984c0,1.888-1.504,3.414-3.357,3.414H45.733c-1.854,0-3.352-1.526-3.352-3.414v-9.8H0v44.328
		c0,6.122,4.888,11.082,10.905,11.082H100.7c6.024,0,10.913-4.96,10.913-11.082V45.185H69.232V54.984z"/>
	<path fill="#AB352B" d="M100.7,18.332H74.686V7.248c0-4.004-3.188-7.244-7.131-7.248H44.059c-3.943,0.004-7.135,3.244-7.137,7.248
		v11.084H10.905C4.888,18.332,0,23.298,0,29.414v12.36h111.613v-12.36C111.613,23.298,106.727,18.332,100.7,18.332z M44.478,7.677
		h22.659v10.654H44.478V7.677z"/>
</g>
</svg>