<?xml version="1.0" encoding="utf-8"?>
<!-- Generator: Adobe Illustrator 16.0.0, SVG Export Plug-In . SVG Version: 6.00 Build 0)  -->
<!DOCTYPE svg PUBLIC "-//W3C//DTD SVG 1.1//EN" "http://www.w3.org/Graphics/SVG/1.1/DTD/svg11.dtd">
<svg version="1.1" id="Layer_1" xmlns="http://www.w3.org/2000/svg" xmlns:xlink="http://www.w3.org/1999/xlink" x="0px" y="0px"
	 width="172px" height="178px" viewBox="0 0 172 178" enable-background="new 0 0 172 178" xml:space="preserve">
<g>
	<path fill="#AB352B" d="M72.104,175.939c-0.33,0-0.656-0.109-0.924-0.318L2.947,122.268c-0.433-0.339-0.646-0.887-0.556-1.429
		l14.229-85.439c0.087-0.522,0.442-0.959,0.936-1.151L100.029,2.16c0.176-0.068,0.36-0.102,0.544-0.102
		c0.33,0,0.656,0.109,0.924,0.318l68.231,53.354c0.433,0.339,0.646,0.886,0.556,1.428l-14.221,85.44
		c-0.087,0.523-0.442,0.961-0.936,1.152l-82.48,32.087C72.472,175.905,72.287,175.939,72.104,175.939z"/>
	<g>
		<path fill="#ED6F23" d="M100.573,3.558l68.231,53.354l-14.221,85.44l-82.48,32.088L3.871,121.086l14.229-85.44L100.573,3.558
			 M100.573,0.558c-0.366,0-0.735,0.067-1.088,0.204L17.013,32.85c-0.986,0.384-1.697,1.259-1.871,2.303L0.912,120.593
			c-0.181,1.083,0.246,2.179,1.111,2.856l68.232,53.354c0.535,0.418,1.188,0.637,1.848,0.637c0.367,0,0.735-0.067,1.088-0.205
			l82.48-32.086c0.986-0.385,1.697-1.26,1.871-2.304l14.221-85.44c0.181-1.084-0.246-2.18-1.111-2.856L102.421,1.194
			C101.885,0.775,101.232,0.558,100.573,0.558L100.573,0.558z"/>
	</g>
</g>
<g>
	<defs>
		<polygon id="SVGID_1_" points="72.104,174.439 3.871,121.086 18.101,35.646 100.573,3.558 168.805,56.911 154.584,142.352 		"/>
	</defs>
	<clipPath id="SVGID_2_">
		<use xlink:href="#SVGID_1_"  overflow="visible"/>
	</clipPath>
	<path clip-path="url(#SVGID_2_)" fill="#EE7932" stroke="#EE7932" stroke-miterlimit="10" d="M173.01,181.9l-3.453-72.718
		l42.946,22.119c0.172,0.089,0.381,0.062,0.524-0.069c0.143-0.131,0.189-0.336,0.117-0.516L164.906,10.858
		c-0.002-0.006-0.008-0.012-0.01-0.019l-4.036-84.972l59.812-76.089c0.141-0.178,0.131-0.431-0.021-0.599
		c-0.152-0.167-0.403-0.2-0.594-0.078l-61.03,39.215l-2.296-48.026c-0.009-0.193-0.138-0.36-0.322-0.419s-0.386,0.003-0.505,0.156
		L76.121-58.423L4.389-12.336l-95.797-13.782c-0.225-0.032-0.439,0.102-0.508,0.317c-0.039,0.123-0.025,0.251,0.032,0.359
		c0.043,0.081,0.11,0.15,0.196,0.194l64.688,33.381l-40.577,26.118c-0.163,0.104-0.244,0.3-0.202,0.488
		c0.009,0.043,0.024,0.082,0.044,0.119c0.068,0.129,0.194,0.22,0.344,0.241l127.529,17.96l0.021,0.014
		c0.041,0.026,0.086,0.045,0.131,0.057l75.855,39.137l35.97,89.827c0.006,0.016,0.013,0.03,0.021,0.046
		c0.096,0.182,0.303,0.279,0.507,0.234C172.866,182.327,173.021,182.127,173.01,181.9z M211.82,129.907l-42.314-21.794
		l-4.479-94.475L211.82,129.907z M155.865-158.423l2.262,47.318L78.502-59.952L155.865-158.423z M76.688-57.685l82.165-52.785
		l59.401-38.238l-58.203,73.981l0,0L100.283,1.349L76.455-2.034L5.809-12.163L76.688-57.685z M-66.026,34.356l39.979-25.731
		l0.012,0.006L57.612,51.77L-66.026,34.356z M60.775,52.337l-0.061-0.065c-0.096-0.104-0.229-0.156-0.361-0.15L13.006,27.713
		L-25.861,7.678l-62.953-32.485l93.24,13.414c0.029,0.004,0.061,0.005,0.093,0.002l95.62,13.736l0.189,0.473l35.292,88.135
		L60.775,52.337z M136.955,91.795c-0.002-0.01-0.002-0.02-0.006-0.028L101.752,3.881L100.999,2l58.985-75.02l3.988,83.95
		l0.004,0.106l-0.101,0.301c-0.041,0.125-0.026,0.256,0.031,0.363c0.026,0.05,0.062,0.095,0.106,0.133l4.579,96.592l3.36,70.768
		L136.955,91.795z"/>
</g>
</svg>
