<?xml version="1.0" encoding="utf-8"?>
<!-- Generator: Adobe Illustrator 16.0.0, SVG Export Plug-In . SVG Version: 6.00 Build 0)  -->
<!DOCTYPE svg PUBLIC "-//W3C//DTD SVG 1.1//EN" "http://www.w3.org/Graphics/SVG/1.1/DTD/svg11.dtd">
<svg version="1.1" id="Layer_1" xmlns="http://www.w3.org/2000/svg" xmlns:xlink="http://www.w3.org/1999/xlink" x="0px" y="0px"
	 width="112px" height="101px" viewBox="0 0 112 101" enable-background="new 0 0 112 101" xml:space="preserve">
<g>
	<path fill="#B3473E" d="M107.598,92.753c-8.43,4.923-29.941,7.71-51.366,7.673c-21.425,0.037-42.922-2.75-51.369-7.673
		c-3.027-1.628-4.565-6.302-4.482-11.681C0.37,70.309,5.408,56.869,5.408,56.853l0.044-0.118v-0.129
		C5.398,44.973,21.994,35.252,43.056,29.932h26.356c21.057,5.32,37.666,15.041,37.604,26.673v0.129l0.043,0.118
		c0.006,0.004,1.254,3.341,2.516,8.056c1.258,4.714,2.521,10.795,2.521,16.164C112.164,86.451,110.629,91.125,107.598,92.753z"/>
	<path fill="#8E261F" d="M77.299,67.154c-2.615-1.887-7.652-4.229-15.234-7.107V49.044c3.053,0.14,5.361,0.812,7.152,2.034
		c1.947,1.34,3.123,3.326,3.436,5.993l0.051,0.485h3.471l1.482-7.683L77.328,49.7c-4.098-2.131-9.221-3.305-15.264-3.504v-2.612
		H57.52v0.513v2.108c-4.601,0.205-8.598,1.175-11.831,2.901c-3.458,1.816-5.243,4.08-5.229,6.654
		c-0.014,2.08,1.258,4.023,3.714,5.765c2.402,1.706,6.834,3.845,13.34,6.494v12.076c-6.763-0.547-10.506-3.243-11.622-8.614
		l-0.098-0.455h-3.366l-2.457,7.702l0.326,0.188c4.301,2.529,10.105,3.887,17.223,4.098v3.76h4.545v-3.75
		c5.41-0.08,9.949-0.957,13.512-2.638c3.75-1.765,5.697-4.115,5.682-6.888C81.258,71.202,79.916,69.067,77.299,67.154z
		 M57.52,58.213c-4.936-2.033-7.195-3.873-7.152-5.339c0.011-0.977,0.687-1.788,2.233-2.556c1.333-0.649,2.951-1.065,4.919-1.24
		V58.213z M68.137,78.805c-1.58,0.746-3.566,1.19-6.072,1.322V69.801c3.143,1.178,5.346,2.215,6.584,3.062
		c1.424,0.979,2.072,1.921,2.082,2.869C70.707,76.981,69.906,77.955,68.137,78.805z"/>
	<path fill="#8E261F" d="M72.109,26.128c0,0.998-0.844,1.809-1.885,1.809H43.172c-1.042,0-1.886-0.812-1.886-1.809l0,0
		c0-0.998,0.844-1.809,1.886-1.809h27.052C71.266,24.32,72.109,25.131,72.109,26.128L72.109,26.128z"/>
	<path fill="#B3473E" d="M32.319,7.733c0,0,2.244,13.791,15.694,14.432s21.856,0.641,28.583-6.094
		C83.32,9.336,89.203,3.082,83.039,3.724c-6.164,0.642-16.814,2.085-26.34,0.642c-9.527-1.443-26.621-5.613-26.341-2.887
		C30.639,4.205,32.319,7.733,32.319,7.733z"/>
</g>
</svg>
