<?xml version="1.0" encoding="utf-8"?>
<!-- Generator: Adobe Illustrator 16.0.0, SVG Export Plug-In . SVG Version: 6.00 Build 0)  -->
<!DOCTYPE svg PUBLIC "-//W3C//DTD SVG 1.1//EN" "http://www.w3.org/Graphics/SVG/1.1/DTD/svg11.dtd">
<svg version="1.1" id="Layer_1" xmlns="http://www.w3.org/2000/svg" xmlns:xlink="http://www.w3.org/1999/xlink" x="0px" y="0px"
	 width="112px" height="101px" viewBox="0 0 112 101" enable-background="new 0 0 112 101" xml:space="preserve">
<path fill-rule="evenodd" clip-rule="evenodd" fill="#96352F" d="M21.543,80.443L-0.051,69.649l7.018-6.169l19.975,2.57
	c0,0,7.021-7.711,11.339-12.334c5.938-6.168,15.119-14.392,15.119-14.392L6.967,25.448l12.957-11.821l54.531,7.196
	c0,0,11.878-10.278,17.819-14.389c7.558-4.628,17.275-7.196,18.896-5.141c2.16,2.056-1.083,10.791-7.021,17.475
	C99.292,24.421,87.413,34.7,87.413,34.7l3.237,51.91L77.156,97.918L66.897,52.689c0,0-9.719,8.224-16.737,13.361
	c-4.859,3.599-13.499,9.767-13.499,9.767l0.54,19.015L30.183,101L21.543,80.443L21.543,80.443z"/>
</svg>
