<?xml version="1.0" encoding="utf-8"?>
<!-- Generator: Adobe Illustrator 16.0.0, SVG Export Plug-In . SVG Version: 6.00 Build 0)  -->
<!DOCTYPE svg PUBLIC "-//W3C//DTD SVG 1.1//EN" "http://www.w3.org/Graphics/SVG/1.1/DTD/svg11.dtd">
<svg version="1.1" id="Layer_1" xmlns="http://www.w3.org/2000/svg" xmlns:xlink="http://www.w3.org/1999/xlink" x="0px" y="0px"
	 width="16px" height="16px" viewBox="0 0 16 16" enable-background="new 0 0 16 16" xml:space="preserve">
<path fill="#B3473E" d="M10.574,0.081H5.425c-1.487,0-2.692,1.205-2.692,2.692v10.454c0,1.487,1.205,2.692,2.692,2.692h5.149
	c1.487,0,2.691-1.205,2.691-2.692V2.773C13.266,1.286,12.062,0.081,10.574,0.081z M5.624,14.414c-0.569,0-1.03-0.459-1.03-1.029
	c0-0.567,0.461-1.028,1.03-1.028c0.567,0,1.029,0.461,1.029,1.028C6.653,13.955,6.191,14.414,5.624,14.414z M8,15.646
	c-0.771,0-1.395-0.625-1.395-1.396S7.229,12.855,8,12.855s1.395,0.625,1.395,1.396S8.77,15.646,8,15.646z M10.376,14.414
	c-0.568,0-1.03-0.459-1.03-1.029c0-0.567,0.462-1.028,1.03-1.028s1.03,0.461,1.03,1.028C11.406,13.955,10.944,14.414,10.376,14.414z
	 M12.554,9.993c0,1.087-1.042,1.968-2.329,1.968H5.773c-1.286,0-2.328-0.881-2.328-1.968V2.998c0-1.086,1.042-1.968,2.328-1.968
	h4.451c1.287,0,2.329,0.882,2.329,1.968V9.993z"/>
</svg>
