<?xml version="1.0" encoding="utf-8"?>
<!-- Generator: Adobe Illustrator 16.0.0, SVG Export Plug-In . SVG Version: 6.00 Build 0)  -->
<!DOCTYPE svg PUBLIC "-//W3C//DTD SVG 1.1//EN" "http://www.w3.org/Graphics/SVG/1.1/DTD/svg11.dtd">
<svg version="1.1" id="Layer_1" xmlns="http://www.w3.org/2000/svg" xmlns:xlink="http://www.w3.org/1999/xlink" x="0px" y="0px"
	 width="50px" height="51px" viewBox="0 0 50 50" enable-background="new 0 0 50 50" xml:space="preserve">
<g>
	<path fill="#FFFFFF" stroke="#FFFFFF" stroke-width="0.8469" stroke-miterlimit="10" d="M42.411,18.637H37.99
		c-2.984,0-4.42,1.164-4.42,3.578v0.897c-0.662-0.27-1.438-0.359-2.211-0.359h-4.421c-2.985,0-4.421,1.252-4.421,3.58v9.842
		c-0.663-0.268-1.436-0.357-2.21-0.357h-4.42c-0.884,0-1.658,0.09-2.211,0.357V33.4c0-2.415-1.547-3.579-4.421-3.579H4.835
		c-2.985,0-4.422,1.164-4.422,3.579v14.943c0,0.27,0.111,0.449,0.332,0.629c0.22,0.178,0.442,0.267,0.773,0.267h44.208
		c0.221,0,0.553-0.089,0.773-0.267c0.223-0.18,0.332-0.359,0.332-0.629V22.215C46.832,19.801,45.284,18.637,42.411,18.637z
		 M37.99,20.426h4.421c1.437,0,2.211,0.538,2.211,1.789V47.45H35.78V22.215C35.78,20.964,36.443,20.426,37.99,20.426z
		 M26.938,24.543h4.421c1.436,0,2.1,0.626,2.211,1.698V47.45h-8.841V26.333C24.729,25.169,25.391,24.543,26.938,24.543z
		 M15.887,37.607h4.42c1.436,0,2.1,0.627,2.21,1.701v8.142h-8.842v-8.142C13.675,38.145,14.449,37.607,15.887,37.607z M11.466,33.4
		v14.05h-8.84V33.4c0-1.251,0.662-1.788,2.21-1.788h4.418C10.691,31.612,11.466,32.149,11.466,33.4z"/>
	<path fill="#FFFFFF" d="M49.577,13.592c0-0.197,0-0.346-0.184-0.542L40.316,0.62c-0.182-0.147-0.304-0.247-0.547-0.346
		c-0.245-0.048-0.427-0.048-0.67,0c-0.244,0.1-0.427,0.199-0.55,0.346l-9.138,12.43c-0.121,0.197-0.121,0.345-0.121,0.542
		s0.121,0.395,0.304,0.493h0.061c0.183,0.149,0.366,0.198,0.611,0.198h2.801v2.368c0,0.196,0.122,0.394,0.305,0.59
		c0.244,0.149,0.426,0.198,0.731,0.249h10.66c0.243-0.051,0.488-0.1,0.672-0.249h0.061c0.183-0.197,0.243-0.394,0.243-0.59v-2.368
		h2.803c0.244,0,0.487-0.049,0.669-0.198C49.394,13.987,49.517,13.79,49.577,13.592z"/>
</g>
</svg>
