<?xml version="1.0" encoding="utf-8"?>
<!-- Generator: Adobe Illustrator 16.0.0, SVG Export Plug-In . SVG Version: 6.00 Build 0)  -->
<!DOCTYPE svg PUBLIC "-//W3C//DTD SVG 1.1//EN" "http://www.w3.org/Graphics/SVG/1.1/DTD/svg11.dtd">
<svg version="1.1" id="Layer_1" xmlns="http://www.w3.org/2000/svg" xmlns:xlink="http://www.w3.org/1999/xlink" x="0px" y="0px"
	 width="50px" height="50px" viewBox="0 0 50 50" enable-background="new 0 0 50 50" xml:space="preserve">
<g>
	<path fill-rule="evenodd" clip-rule="evenodd" fill="#FFFFFF" d="M40.36,46.696c0,1.648-0.776,2.984-1.731,2.984H1.711
		c-0.957,0-1.732-1.336-1.732-2.984V3.307c0-1.648,0.775-2.987,1.732-2.987h36.917c0.955,0,1.731,1.338,1.731,2.987V46.696z"/>
	<polyline fill="none" stroke="#8E261F" stroke-width="1.5226" stroke-miterlimit="10" points="4.245,8.896 6.583,12.367 
		12.287,4.229 	"/>
	<polyline fill="none" stroke="#8E261F" stroke-width="1.5226" stroke-miterlimit="10" points="4.245,20.519 6.583,23.989 
		12.287,15.852 	"/>
	<polyline fill="none" stroke="#8E261F" stroke-width="1.5226" stroke-miterlimit="10" points="4.245,30.441 6.583,33.911 
		12.287,25.774 	"/>
	<path fill="#8E261F" d="M37.962,36.244c0.476-0.975,1.691-3.459,2.235-4.578c0.303-0.623,0.743-0.672,1.077,0
		c0.317,0.639,1.736,3.547,2.248,4.598c0.115,0.238,0.349,0.405,0.622,0.447c1.152,0.173,4.254,0.639,4.926,0.725
		c0.693,0.088,0.765,0.627,0.338,1.057c-0.398,0.399-2.816,2.8-3.609,3.591c-0.16,0.16-0.233,0.376-0.198,0.586
		c0.188,1.078,0.771,4.439,0.858,4.963c0.106,0.625-0.302,1.037-0.94,0.733c-0.548-0.262-3.292-1.719-4.358-2.285
		c-0.262-0.142-0.578-0.145-0.832-0.01c-1.082,0.574-3.964,2.107-4.367,2.295c-0.621,0.286-1.083,0.054-0.96-0.662
		c0.107-0.614,0.672-3.888,0.859-4.968c0.052-0.278-0.004-0.521-0.189-0.706c-0.807-0.806-3.041-2.992-3.53-3.485
		c-0.443-0.445-0.391-0.981,0.195-1.073c0.751-0.115,3.754-0.571,4.942-0.752C37.58,36.673,37.841,36.494,37.962,36.244z"/>
</g>
</svg>
