<?xml version="1.0" encoding="utf-8"?>
<!-- Generator: Adobe Illustrator 16.0.0, SVG Export Plug-In . SVG Version: 6.00 Build 0)  -->
<!DOCTYPE svg PUBLIC "-//W3C//DTD SVG 1.1//EN" "http://www.w3.org/Graphics/SVG/1.1/DTD/svg11.dtd">
<svg version="1.1" id="Layer_1" xmlns="http://www.w3.org/2000/svg" xmlns:xlink="http://www.w3.org/1999/xlink" x="0px" y="0px"
	 width="112px" height="101px" viewBox="0 0 112 101" enable-background="new 0 0 112 101" xml:space="preserve">
<path fill="#AB352B" d="M105.486,0.209L41.349,6.678c-3.478,0.353-6.297,2.78-6.297,5.372v62.341
	c-4.889-1.423-10.865-1.678-16.912-0.404C5.812,76.588-1.95,84.508,0.787,91.688c2.737,7.187,14.922,10.91,27.276,8.32
	c10.729-2.258,17.997-8.554,17.916-14.898v0.541V30.745c0-2.612,2.813-5.019,6.291-5.365l42.281-4.279
	c3.473-0.358,6.303,1.488,6.303,4.087v41.089c-4.873-1.426-10.883-1.661-16.896-0.402c-12.342,2.598-20.102,10.527-17.369,17.714
	c2.721,7.19,14.934,10.906,27.277,8.319c10.656-2.254,17.927-8.508,17.889-14.811l0.01,0.517V4.291
	C111.764,1.705,108.934-0.133,105.486,0.209z"/>
</svg>