<?xml version="1.0" encoding="utf-8"?>
<!-- Generator: Adobe Illustrator 16.0.0, SVG Export Plug-In . SVG Version: 6.00 Build 0)  -->
<!DOCTYPE svg PUBLIC "-//W3C//DTD SVG 1.1//EN" "http://www.w3.org/Graphics/SVG/1.1/DTD/svg11.dtd">
<svg version="1.1" id="Layer_1" xmlns="http://www.w3.org/2000/svg" xmlns:xlink="http://www.w3.org/1999/xlink" x="0px" y="0px"
	 width="16px" height="16px" viewBox="0 0 16 16" enable-background="new 0 0 16 16" xml:space="preserve">
<path fill="#B3473E" d="M12.904,1.502H3.094c-1.651,0-2.986,1.688-2.986,3.773v5.448c0,2.085,1.335,3.773,2.986,3.773h9.811
	c1.649,0,2.987-1.688,2.987-3.773V5.275C15.892,3.191,14.554,1.502,12.904,1.502z M15.195,12.585
	c-0.059,0.081-0.14,0.133-0.228,0.138h-0.017c-0.082,0-0.16-0.04-0.221-0.11l-4.154-4.777l-2.37,2.499
	c-0.062,0.064-0.137,0.097-0.212,0.097c-0.074,0-0.149-0.032-0.211-0.097L5.417,7.842l-3.968,4.562
	c-0.062,0.071-0.141,0.108-0.224,0.108H1.211c-0.088-0.005-0.17-0.054-0.23-0.137c-0.055-0.074-0.085-0.176-0.085-0.28v-0.02
	c0.004-0.108,0.044-0.215,0.109-0.289l3.902-4.484L1.303,3.504c-0.139-0.147-0.159-0.41-0.042-0.586
	c0.117-0.177,0.325-0.201,0.465-0.055l0.303,0.321l5.964,6.287l5.973-6.294l0.305-0.324c0.141-0.144,0.348-0.122,0.464,0.054
	c0.117,0.179,0.098,0.441-0.041,0.588l-3.607,3.802l4.089,4.701c0.064,0.075,0.102,0.177,0.105,0.289v0.022
	C15.281,12.408,15.252,12.508,15.195,12.585z"/>
</svg>
