<?xml version="1.0" encoding="utf-8"?>
<!-- Generator: Adobe Illustrator 16.0.0, SVG Export Plug-In . SVG Version: 6.00 Build 0)  -->
<!DOCTYPE svg PUBLIC "-//W3C//DTD SVG 1.1//EN" "http://www.w3.org/Graphics/SVG/1.1/DTD/svg11.dtd">
<svg version="1.1" id="Layer_1" xmlns="http://www.w3.org/2000/svg" xmlns:xlink="http://www.w3.org/1999/xlink" x="0px" y="0px"
	 width="16px" height="16px" viewBox="0 0 16 16" enable-background="new 0 0 16 16" xml:space="preserve">
<path fill="#B3473E" d="M2.534,8.715v6.611c0.004,0.251,0.161,0.408,0.289,0.483c0.135,0.081,0.28,0.114,0.435,0.115h2.911
	c0.101,0,0.198-0.042,0.271-0.115c0.07-0.073,0.111-0.174,0.111-0.277v-3.179h2.9v3.179c0,0.104,0.041,0.204,0.112,0.277
	s0.169,0.115,0.27,0.115h2.911c0.155-0.001,0.301-0.034,0.436-0.115c0.128-0.075,0.285-0.232,0.289-0.483V8.715L8.001,3.568
	L2.534,8.715z"/>
<path fill="#8E261F" d="M15.594,6.893L8.692,0.396c-0.393-0.37-0.991-0.37-1.384,0l-6.9,6.498c-0.418,0.393-0.445,1.06-0.064,1.49
	l0,0c0.203,0.228,0.479,0.343,0.757,0.343c0.247,0,0.495-0.091,0.692-0.277l6.208-5.845l6.209,5.845
	c0.417,0.394,1.065,0.364,1.447-0.066C16.039,7.953,16.011,7.286,15.594,6.893z"/>
</svg>
