<?xml version="1.0" encoding="utf-8"?>
<!-- Generator: Adobe Illustrator 16.0.0, SVG Export Plug-In . SVG Version: 6.00 Build 0)  -->
<!DOCTYPE svg PUBLIC "-//W3C//DTD SVG 1.1//EN" "http://www.w3.org/Graphics/SVG/1.1/DTD/svg11.dtd">
<svg version="1.1" id="Layer_1" xmlns="http://www.w3.org/2000/svg" xmlns:xlink="http://www.w3.org/1999/xlink" x="0px" y="0px"
	 width="112px" height="101px" viewBox="0 0 112 101" enable-background="new 0 0 112 101" xml:space="preserve">
<path fill="#96352F" d="M105.487,0.209L41.349,6.678c-3.478,0.353-6.297,2.78-6.297,5.372v62.34
	c-4.889-1.422-10.865-1.677-16.912-0.404C5.812,76.588-1.95,84.508,0.787,91.688c2.737,7.186,14.922,10.91,27.276,8.32
	c10.729-2.258,17.997-8.554,17.916-14.898v0.541V30.745c0-2.612,2.813-5.019,6.291-5.365l42.281-4.279
	c3.473-0.358,6.303,1.488,6.303,4.087v41.089c-4.874-1.425-10.883-1.661-16.897-0.402c-12.342,2.597-20.101,10.528-17.369,17.714
	c2.721,7.19,14.933,10.906,27.277,8.319c10.657-2.254,17.927-8.508,17.889-14.81l0.01,0.516V4.291
	C111.763,1.705,108.934-0.133,105.487,0.209z"/>
</svg>