<?xml version="1.0" encoding="utf-8"?>
<!-- Generator: Adobe Illustrator 16.0.0, SVG Export Plug-In . SVG Version: 6.00 Build 0)  -->
<!DOCTYPE svg PUBLIC "-//W3C//DTD SVG 1.1//EN" "http://www.w3.org/Graphics/SVG/1.1/DTD/svg11.dtd">
<svg version="1.1" id="Layer_1" xmlns="http://www.w3.org/2000/svg" xmlns:xlink="http://www.w3.org/1999/xlink" x="0px" y="0px"
	 width="50px" height="50px" viewBox="0 0 50 50" enable-background="new 0 0 50 50" xml:space="preserve">
<circle fill="#96352F" cx="19.5" cy="30.013" r="19.51"/>
<path fill="#FFFFFF" d="M46.691,11.986l3.023-3.029l-8.746-0.042l-0.167-8.772l-2.916,3.029l0.051,7.28l-2.141,2.143l-0.139-7.298
	l-2.915,3.029l0.05,7.28l-2.22,2.225l-0.139-7.299l-2.917,3.028l0.019,2.666c-1.195-0.716-2.5-1.291-3.905-1.685
	c-8.47-2.375-17.292,2.586-19.666,11.055C1.591,34.065,6.55,42.888,15.02,45.261c8.47,2.375,17.292-2.587,19.666-11.056
	c1.16-4.141,0.565-8.365-1.334-11.879l2.973,0.051l3.023-3.029l-7.862-0.039l2.215-2.22l7.77,0.132l3.022-3.029l-7.862-0.039
	l2.292-2.298L46.691,11.986z"/>
<path fill="#96352F" d="M32.084,33.477c-1.972,7.035-9.299,11.152-16.334,9.183c-7.036-1.974-11.154-9.301-9.183-16.334
	c1.972-7.036,9.298-11.155,16.333-9.184c1.75,0.491,3.317,1.313,4.658,2.378l0.01,1.322l-2.518,2.522
	c-0.913-0.773-1.997-1.372-3.223-1.716c-4.578-1.283-9.346,1.397-10.629,5.976c-1.283,4.576,1.399,9.345,5.976,10.627
	c4.578,1.283,9.346-1.396,10.626-5.974c0.777-2.77,0.095-5.606-1.573-7.702l2.327-2.331l1.596,0.027
	C32.363,25.417,33.2,29.492,32.084,33.477z"/>
<path fill="#96352F" d="M25.2,31.547c-0.881,3.144-4.154,4.981-7.297,4.102c-3.142-0.88-4.984-4.154-4.103-7.298
	c0.881-3.142,4.156-4.982,7.299-4.102c0.763,0.214,1.447,0.572,2.037,1.033l-2.394,2.398c-0.167-0.093-0.346-0.168-0.537-0.223
	c-1.358-0.38-2.767,0.412-3.147,1.769c-0.381,1.357,0.412,2.768,1.769,3.147c1.356,0.38,2.766-0.411,3.146-1.769
	c0.161-0.574,0.109-1.156-0.102-1.665l2.433-2.437C25.314,27.912,25.704,29.75,25.2,31.547z"/>
</svg>
