<?xml version="1.0" encoding="utf-8"?>
<!-- Generator: Adobe Illustrator 16.0.0, SVG Export Plug-In . SVG Version: 6.00 Build 0)  -->
<!DOCTYPE svg PUBLIC "-//W3C//DTD SVG 1.1//EN" "http://www.w3.org/Graphics/SVG/1.1/DTD/svg11.dtd">
<svg version="1.1" id="Layer_1" xmlns="http://www.w3.org/2000/svg" xmlns:xlink="http://www.w3.org/1999/xlink" x="0px" y="0px"
	 width="1382.2px" height="1514.03px" viewBox="0 0 1382.2 1514.03" enable-background="new 0 0 1382.2 1514.03"
	 xml:space="preserve">
<path fill="#FFFFFF" d="M1170.95,1512.309l-15.259-321.418l189.822,97.769c0.76,0.393,1.684,0.269,2.316-0.307
	c0.634-0.577,0.842-1.485,0.521-2.28l-213.216-529.784c-0.011-0.029-0.034-0.051-0.048-0.081l-17.839-375.582l264.374-336.319
	c0.617-0.788,0.576-1.903-0.094-2.645c-0.672-0.74-1.782-0.886-2.624-0.345l-269.757,173.333L1098.999,2.373
	c-0.04-0.855-0.607-1.593-1.422-1.854c-0.815-0.261-1.707,0.014-2.235,0.687L742.699,450.065L425.636,653.771L2.204,592.855
	c-0.989-0.143-1.938,0.451-2.242,1.402c-0.175,0.544-0.111,1.113,0.142,1.587c0.19,0.357,0.487,0.662,0.869,0.858L286.9,744.25
	L107.545,859.691c-0.721,0.463-1.075,1.326-0.892,2.162c0.041,0.185,0.105,0.359,0.191,0.521c0.303,0.57,0.863,0.975,1.524,1.068
	l563.685,79.387l0.093,0.059c0.186,0.115,0.381,0.199,0.583,0.25l335.284,172.988l158.988,397.041
	c0.027,0.068,0.059,0.136,0.094,0.2c0.425,0.802,1.339,1.237,2.243,1.04C1170.316,1514.195,1170.998,1513.309,1170.95,1512.309z
	 M1342.495,1282.496l-187.028-96.329l-19.801-417.584L1342.495,1282.496z M1095.169,8.058l10.001,209.149L753.219,443.305
	L1095.169,8.058z M745.204,453.326l363.176-233.311l262.56-169.016L1113.678,378h-0.002L849.498,714.258l-105.326-14.953
	l-312.263-44.769L745.204,453.326z M114.396,860.154l176.706-113.735l0.052,0.025l369.732,190.674L114.396,860.154z
	 M674.866,939.631l-0.266-0.292c-0.42-0.458-1.008-0.688-1.596-0.663L463.723,830.792l-171.795-88.559L13.67,598.644l412.128,59.292
	c0.13,0.02,0.27,0.021,0.41,0.009l422.647,60.715l0.838,2.092l155.993,389.564L674.866,939.631z M1011.59,1114.037
	c-0.013-0.042-0.012-0.086-0.029-0.127L855.986,725.449l-3.328-8.314l260.721-331.589l17.626,371.063l0.018,0.47l-0.441,1.33
	c-0.184,0.554-0.118,1.13,0.136,1.605c0.117,0.222,0.275,0.421,0.469,0.589l20.244,426.94l14.85,312.799L1011.59,1114.037z"/>
</svg>
