<?xml version="1.0" encoding="utf-8"?>
<!-- Generator: Adobe Illustrator 16.0.0, SVG Export Plug-In . SVG Version: 6.00 Build 0)  -->
<!DOCTYPE svg PUBLIC "-//W3C//DTD SVG 1.1//EN" "http://www.w3.org/Graphics/SVG/1.1/DTD/svg11.dtd">
<svg version="1.1" id="Layer_1" xmlns="http://www.w3.org/2000/svg" xmlns:xlink="http://www.w3.org/1999/xlink" x="0px" y="0px"
	 width="900.57px" height="992.05px" viewBox="0 0 900.57 992.05" enable-background="new 0 0 900.57 992.05" xml:space="preserve">
<path fill="#AB352B" d="M899.974,574.198L708.86,484.075l115.155-79.986c0.461-0.321,0.674-0.895,0.535-1.439
	c-0.14-0.544-0.603-0.945-1.162-1.004l-372.916-39.474c-0.021-0.002-0.041,0.004-0.062,0.002L227.09,256.869L113.441-0.024
	c-0.266-0.601-0.926-0.92-1.562-0.76c-0.637,0.163-1.063,0.761-1.008,1.416l17.464,209.826L2.093,150.978
	c-0.508-0.24-1.111-0.138-1.513,0.255s-0.518,0.994-0.29,1.507l151.739,342.74l20.513,246.616L6.826,968.917
	c-0.387,0.53-0.335,1.263,0.123,1.733c0.262,0.268,0.611,0.405,0.964,0.405c0.266,0,0.534-0.079,0.766-0.239L182.297,850.42
	l11.725,139.568c0.047,0.56,0.438,1.031,0.979,1.184c0.12,0.033,0.242,0.049,0.362,0.049c0.424,0,0.832-0.201,1.089-0.555
	l219.615-302.479l0.063-0.035c0.124-0.072,0.232-0.16,0.325-0.262l203.571-141.188l279.23,30.05
	c0.049,0.006,0.098,0.008,0.145,0.008c0.597,0,1.131-0.396,1.295-0.98C900.873,575.146,900.568,574.479,899.974,574.198z
	 M819.511,403.941l-113.46,78.809L457.767,365.649L819.511,403.941z M4.211,154.951l124.38,58.603l22.756,273.744L4.211,154.951z
	 M154.693,495.032l-23.484-282.476L114.299,8.375L225,258.413c0,0.001,0,0.001,0,0.002l113.406,256.618l-41.238,56.41
	L174.983,738.727L154.693,495.032z M196.4,986.156L184.849,848.65l0.031-0.022l224.436-155.722L196.4,986.156z M415.077,685.571
	l-0.25,0.065c-0.395,0.102-0.709,0.372-0.876,0.721l-127.013,88.158l-104.261,72.366L13.714,964.05l161.292-220.767
	c0.051-0.07,0.095-0.15,0.132-0.234l165.357-226.43l1.472,0.158l273.972,29.484L415.077,685.571z M619.915,543.984
	c-0.028-0.006-0.054-0.02-0.083-0.022l-273.203-29.388l-5.846-0.63L228.752,260.627l220.635,104.038l0.278,0.135l0.634,0.665
	c0.265,0.277,0.619,0.417,0.974,0.417c0.164,0,0.329-0.031,0.484-0.091l253.85,119.725l185.988,87.707L619.915,543.984z"/>
</svg>
