<?xml version="1.0" encoding="utf-8"?>
<!-- Generator: Adobe Illustrator 16.0.0, SVG Export Plug-In . SVG Version: 6.00 Build 0)  -->
<!DOCTYPE svg PUBLIC "-//W3C//DTD SVG 1.1//EN" "http://www.w3.org/Graphics/SVG/1.1/DTD/svg11.dtd">
<svg version="1.1" id="Layer_1" xmlns="http://www.w3.org/2000/svg" xmlns:xlink="http://www.w3.org/1999/xlink" x="0px" y="0px"
	 width="902px" height="994px" viewBox="0 0 902 994" enable-background="new 0 0 902 994" xml:space="preserve">
<path fill="#8E261F" d="M899.974,576.198L708.86,486.075l115.155-79.986c0.461-0.321,0.674-0.895,0.535-1.439
	c-0.14-0.544-0.604-0.945-1.162-1.004l-372.916-39.474c-0.021-0.002-0.04,0.004-0.061,0.002L227.09,258.869L113.441,1.976
	c-0.267-0.601-0.927-0.92-1.562-0.76c-0.637,0.163-1.063,0.761-1.009,1.416l17.464,209.826L2.094,152.978
	c-0.509-0.24-1.111-0.138-1.514,0.255s-0.518,0.994-0.29,1.507l151.739,342.74l20.513,246.616L6.826,970.917
	c-0.387,0.53-0.336,1.263,0.123,1.733c0.262,0.268,0.611,0.405,0.964,0.405c0.267,0,0.534-0.079,0.767-0.239L182.297,852.42
	l11.725,139.568c0.047,0.56,0.438,1.031,0.979,1.184c0.121,0.033,0.242,0.049,0.362,0.049c0.424,0,0.831-0.201,1.089-0.555
	l219.615-302.479l0.062-0.035c0.124-0.072,0.232-0.16,0.325-0.262l203.571-141.188l279.23,30.05
	c0.049,0.006,0.098,0.008,0.145,0.008c0.597,0,1.131-0.396,1.295-0.98C900.873,577.146,900.568,576.479,899.974,576.198z
	 M819.511,405.941l-113.46,78.809L457.766,367.649L819.511,405.941z M4.211,156.951l124.381,58.603l22.756,273.744L4.211,156.951z
	 M154.693,497.032l-23.484-282.476l-16.91-204.181L225,260.413c0,0.001,0,0.001,0,0.002l113.406,256.618l-41.238,56.41
	L174.983,740.727L154.693,497.032z M196.4,988.156L184.849,850.65l0.031-0.022l224.437-155.722L196.4,988.156z M415.077,687.571
	l-0.251,0.065c-0.395,0.102-0.709,0.372-0.876,0.721l-127.013,88.158l-104.262,72.366L13.715,966.05l161.292-220.767
	c0.052-0.07,0.095-0.15,0.132-0.234l165.357-226.43l1.471,0.158l273.973,29.484L415.077,687.571z M619.915,545.984
	c-0.028-0.006-0.054-0.02-0.083-0.022l-273.203-29.388l-5.846-0.63L228.752,262.627l220.635,104.038l0.279,0.135l0.634,0.665
	c0.265,0.277,0.618,0.417,0.974,0.417c0.164,0,0.328-0.031,0.484-0.091l253.85,119.725l185.988,87.707L619.915,545.984z"/>
</svg>
