<?xml version="1.0" encoding="utf-8"?>
<!-- Generator: Adobe Illustrator 16.0.0, SVG Export Plug-In . SVG Version: 6.00 Build 0)  -->
<!DOCTYPE svg PUBLIC "-//W3C//DTD SVG 1.1//EN" "http://www.w3.org/Graphics/SVG/1.1/DTD/svg11.dtd">
<svg version="1.1" id="Layer_1" xmlns="http://www.w3.org/2000/svg" xmlns:xlink="http://www.w3.org/1999/xlink" x="0px" y="0px"
	 width="901px" height="993px" viewBox="0 0 901 993" enable-background="new 0 0 901 993" xml:space="preserve">
<path fill="#E6E6E6" d="M0.226,576.779c0.164,0.585,0.698,0.98,1.295,0.98c0.047,0,0.096-0.002,0.145-0.008l279.23-30.05
	l203.571,141.188c0.093,0.102,0.201,0.189,0.325,0.262l0.062,0.036L704.47,991.666c0.258,0.354,0.665,0.555,1.089,0.555
	c0.12,0,0.241-0.016,0.362-0.049c0.541-0.152,0.932-0.624,0.979-1.184l11.725-139.568l173.617,120.396
	c0.232,0.16,0.5,0.239,0.767,0.239c0.353,0,0.702-0.138,0.964-0.405c0.459-0.471,0.51-1.203,0.123-1.733L728.379,743.096
	l20.513-246.616l151.739-342.74c0.228-0.514,0.112-1.115-0.29-1.507s-1.005-0.495-1.514-0.255l-126.24,59.479L790.051,1.632
	c0.055-0.655-0.372-1.253-1.009-1.416c-0.636-0.16-1.296,0.159-1.562,0.76L673.831,257.869L450.509,363.174
	c-0.021,0.001-0.04-0.005-0.061-0.002L77.532,402.646c-0.56,0.059-1.022,0.46-1.162,1.004c-0.139,0.544,0.074,1.118,0.535,1.439
	l115.155,79.986L0.947,575.198C0.353,575.479,0.048,576.146,0.226,576.779z M443.154,366.649L194.87,483.75L81.41,404.941
	L443.154,366.649z M749.573,488.297l22.756-273.744l124.381-58.603L749.573,488.297z M725.938,739.727L603.753,572.443
	l-41.198-56.41L676,259.416c0-0.001,0-0.001,0-0.002L786.662,9.375l-16.931,204.181l-23.494,282.476L725.938,739.727z
	 M491.604,693.906l224.437,155.722l0.031,0.022l-11.552,137.506L491.604,693.906z M284.981,547.262l273.973-29.484l1.471-0.158
	l165.357,226.43c0.037,0.084,0.08,0.164,0.132,0.234L887.206,965.05L718.245,847.882l-104.262-72.366l-127.013-88.158
	c-0.167-0.349-0.481-0.619-0.876-0.721l-0.251-0.065L284.981,547.262z M9.325,574.222l185.988-87.707l253.85-119.725
	c0.155,0.061,0.32,0.091,0.484,0.091c0.354,0,0.709-0.14,0.974-0.417l0.634-0.665l0.279-0.135l220.635-104.038L560.138,514.944
	l-5.846,0.63l-273.203,29.388c-0.029,0.003-0.055,0.017-0.083,0.022L9.325,574.222z"/>
</svg>
