<?xml version="1.0" encoding="utf-8"?>
<!-- Generator: Adobe Illustrator 16.0.0, SVG Export Plug-In . SVG Version: 6.00 Build 0)  -->
<!DOCTYPE svg PUBLIC "-//W3C//DTD SVG 1.1//EN" "http://www.w3.org/Graphics/SVG/1.1/DTD/svg11.dtd">
<svg version="1.1" id="Layer_1" xmlns="http://www.w3.org/2000/svg" xmlns:xlink="http://www.w3.org/1999/xlink" x="0px" y="0px"
	 width="191.22px" height="75.96px" viewBox="0 0 191.22 75.96" enable-background="new 0 0 191.22 75.96" xml:space="preserve">
<g>
	<g>
		<polygon points="7.479,1.496 8.799,17.342 10.553,38.443 12.089,56.916 24.486,39.941 15.984,20.72 		"/>
		<polygon points="12.801,64.801 30.103,52.797 30.109,52.787 		"/>
		<polygon points="15.984,20.72 24.486,39.941 66.282,44.439 51.849,37.633 32.748,28.625 32.711,28.606 		"/>
		<polygon points="32.737,28.61 32.748,28.625 51.849,37.633 60.594,31.56 		"/>
		<polygon points="-0.789,12.826 10.553,38.443 8.799,17.342 		"/>
		<polygon points="12.801,64.801 13.691,75.4 30.103,52.797 		"/>
		<line x1="30.103" y1="52.797" x2="30.109" y2="52.787"/>
		<line x1="32.748" y1="28.625" x2="32.807" y2="28.687"/>
		<polygon points="-0.311,73.894 12.801,64.801 30.109,52.787 30.132,52.773 30.11,52.771 30.146,52.761 45.388,42.189 
			24.486,39.941 12.089,56.916 12.089,56.92 		"/>
	</g>
	<g>
		
			<linearGradient id="SVGID_1_" gradientUnits="userSpaceOnUse" x1="5008.9082" y1="315.4463" x2="5032.9307" y2="313.3446" gradientTransform="matrix(-0.9943 -0.107 -0.107 0.9943 5040.082 252.6436)">
			<stop  offset="0.0914" style="stop-color:#202020"/>
			<stop  offset="0.3298" style="stop-color:#4A4A4A"/>
			<stop  offset="0.7884" style="stop-color:#959697"/>
			<stop  offset="1" style="stop-color:#B3B4B5"/>
		</linearGradient>
		<polygon fill="url(#SVGID_1_)" points="7.479,-0.56 8.799,15.288 10.553,36.389 12.089,54.861 24.486,37.887 15.984,18.664 		"/>
		
			<linearGradient id="SVGID_2_" gradientUnits="userSpaceOnUse" x1="5002.6123" y1="342.1777" x2="5018.5352" y2="342.1777" gradientTransform="matrix(-0.9943 -0.107 -0.107 0.9943 5040.082 252.6436)">
			<stop  offset="0" style="stop-color:#1C7FB8"/>
			<stop  offset="1" style="stop-color:#37C4F1"/>
		</linearGradient>
		<polygon fill="url(#SVGID_2_)" points="12.801,62.746 30.103,50.741 30.109,50.732 		"/>
		
			<linearGradient id="SVGID_3_" gradientUnits="userSpaceOnUse" x1="4987.4404" y1="306.4121" x2="5004.8091" y2="327.111" gradientTransform="matrix(-0.9943 -0.107 -0.107 0.9943 5040.082 252.6436)">
			<stop  offset="0.2324" style="stop-color:#AB352B"/>
			<stop  offset="0.6481" style="stop-color:#8E261F"/>
			<stop  offset="0.8396" style="stop-color:#63120E"/>
			<stop  offset="0.9936" style="stop-color:#3D0000"/>
		</linearGradient>
		<polygon fill="url(#SVGID_3_)" points="15.984,18.664 24.486,37.887 66.282,42.385 51.849,35.579 32.748,26.569 32.711,26.551 		
			"/>
		
			<linearGradient id="SVGID_4_" gradientUnits="userSpaceOnUse" x1="4983.1943" y1="318.3066" x2="4993.4385" y2="304.2801" gradientTransform="matrix(-0.9943 -0.107 -0.107 0.9943 5040.082 252.6436)">
			<stop  offset="0" style="stop-color:#F2AB2D"/>
			<stop  offset="0.5089" style="stop-color:#ED6F23"/>
			<stop  offset="0.8369" style="stop-color:#914408"/>
			<stop  offset="1" style="stop-color:#6C3200"/>
		</linearGradient>
		<polygon fill="url(#SVGID_4_)" points="32.737,26.555 32.748,26.569 51.849,35.579 60.594,29.504 		"/>
		
			<linearGradient id="SVGID_5_" gradientUnits="userSpaceOnUse" x1="5037.6064" y1="310.9814" x2="5023.5908" y2="310.9814" gradientTransform="matrix(-0.9943 -0.107 -0.107 0.9943 5040.082 252.6436)">
			<stop  offset="0.2324" style="stop-color:#AB352B"/>
			<stop  offset="0.6481" style="stop-color:#8E261F"/>
			<stop  offset="0.8396" style="stop-color:#63120E"/>
			<stop  offset="0.9936" style="stop-color:#3D0000"/>
		</linearGradient>
		<polygon fill="url(#SVGID_5_)" points="-0.789,10.771 10.553,36.389 8.799,15.288 		"/>
		
			<linearGradient id="SVGID_6_" gradientUnits="userSpaceOnUse" x1="5000.5664" y1="337.3379" x2="5019.6309" y2="356.4022" gradientTransform="matrix(-0.9943 -0.107 -0.107 0.9943 5040.082 252.6436)">
			<stop  offset="0" style="stop-color:#202020"/>
			<stop  offset="0.0254" style="stop-color:#252525"/>
			<stop  offset="0.2428" style="stop-color:#4F5050"/>
			<stop  offset="0.4541" style="stop-color:#707171"/>
			<stop  offset="0.6553" style="stop-color:#888989"/>
			<stop  offset="0.842" style="stop-color:#969797"/>
			<stop  offset="1" style="stop-color:#9B9C9C"/>
		</linearGradient>
		<polygon fill="url(#SVGID_6_)" points="12.801,62.746 13.691,73.346 30.103,50.741 		"/>
		<line fill="none" x1="30.103" y1="50.741" x2="30.109" y2="50.732"/>
		<line fill="none" x1="32.748" y1="26.569" x2="32.807" y2="26.633"/>
		
			<linearGradient id="SVGID_7_" gradientUnits="userSpaceOnUse" x1="5009.2998" y1="341.6445" x2="5018.5425" y2="330.6296" gradientTransform="matrix(-0.9943 -0.107 -0.107 0.9943 5040.082 252.6436)">
			<stop  offset="0" style="stop-color:#F2AB2D"/>
			<stop  offset="0.5089" style="stop-color:#ED6F23"/>
			<stop  offset="0.8369" style="stop-color:#914408"/>
			<stop  offset="1" style="stop-color:#6C3200"/>
		</linearGradient>
		<polygon fill="url(#SVGID_7_)" points="-0.311,71.839 12.801,62.746 30.109,50.732 30.132,50.719 30.11,50.715 30.146,50.707 
			45.388,40.136 24.486,37.887 12.089,54.861 12.089,54.865 		"/>
	</g>
</g>
<g>
	<g>
		<path fill="#F2F2F2" d="M127.161,38.766v3.686c0,4.164-3.882,7.969-8.288,7.969c-4.445,0-8.291-3.764-8.291-7.969v-3.686
			c0-4.205,3.726-7.889,8.291-7.889C123.279,30.877,127.161,34.44,127.161,38.766z M122.957,38.766c0-2.082-1.841-4.164-4.084-4.164
			c-2.283,0-4.084,2.083-4.084,4.164v3.686c0,2.164,1.801,4.246,4.084,4.246c2.243,0,4.084-2.082,4.084-4.246V38.766z"/>
		<path fill="#F2F2F2" d="M140.857,38.447l6.287,9.049c0.16,0.24,0.24,0.521,0.24,0.723c0,1-1.361,2.121-2.363,2.121
			c-0.44,0-0.841-0.199-1.121-0.6l-5.889-8.691l-2.922,2.643v5.008c0,0.68-0.961,1.4-2.163,1.4c-1.201,0-2.042-0.721-2.042-1.4
			V21.185c0-0.802,0.841-1.362,2.042-1.362c1.202,0,2.163,0.56,2.163,1.362v17.822l8.37-7.689c0.241-0.242,0.562-0.361,0.879-0.361
			c0.923,0,2.046,1.043,2.046,2.004c0,0.319-0.121,0.64-0.361,0.88L140.857,38.447z"/>
		<path fill="#F2F2F2" d="M159.117,45.014c0-4.205-9.652-1.721-9.652-8.37c0-2.763,1.802-5.767,6.848-5.767
			c3.004,0,6.007,1.081,6.007,2.363c0,0.601-0.601,2.043-1.601,2.043c-0.842,0-2.083-1.162-4.326-1.162
			c-2.361,0-3.243,1.321-3.243,2.322c0,3.524,9.731,1.202,9.731,8.411c0,3.404-2.523,5.566-7.047,5.566
			c-3.967,0-6.889-1.682-6.889-3.205c0-0.719,0.6-1.881,1.441-1.881c1.041,0,1.882,1.844,5.326,1.844
			C158.355,47.178,159.117,46.094,159.117,45.014z"/>
		<path fill="#F2F2F2" d="M170.768,24.149c0,1.161-1.08,2.203-2.442,2.203c-1.361,0-2.442-1.042-2.442-2.203
			c0-1.201,1.081-2.203,2.442-2.203C169.688,21.946,170.768,22.948,170.768,24.149z M170.449,32.479v16.22
			c0,0.68-0.922,1.4-2.124,1.4c-1.2,0-2.082-0.721-2.082-1.4v-16.22c0-0.802,0.882-1.362,2.082-1.362
			C169.527,31.117,170.449,31.677,170.449,32.479z"/>
		<path fill="#F2F2F2" d="M190.431,38.285c0,3.324-1.843,3.445-3.646,3.445h-8.449v0.92c0,2.684,2.123,4.365,5.207,4.365
			c2.842,0,3.805-1.521,4.886-1.521c1.001,0,1.641,1.162,1.641,1.883c0,1.201-2.603,3.043-6.647,3.043
			c-5.447,0-9.291-3.205-9.291-7.969v-3.805c0-4.206,3.725-7.77,8.33-7.77C186.746,30.877,190.431,33.92,190.431,38.285z
			 M184.984,39.127c1.161,0,1.48-0.24,1.48-1.201c0-2.123-1.762-3.845-4.043-3.845c-2.203,0-4.086,1.562-4.086,3.764v1.282H184.984z
			"/>
	</g>
	<path fill="#F2F2F2" d="M100.152,30.877c-2.311,0-5.415,1.27-6.827,3.966c-1.41-2.696-4.515-3.966-6.826-3.966
		c-3.604,0-6.968,2.843-6.968,7.889v9.934c0,0.68,0.962,1.4,2.123,1.4c1.083,0,2.083-0.721,2.083-1.4v-9.934
		c0-2.764,1.882-4.205,3.724-4.205c1.882,0,3.765,1.522,3.765,4.125v10.053c0,0.948,1.015,1.35,2.08,1.359V50.1
		c0.008,0,0.014-0.001,0.021-0.001c0.008,0,0.016,0.001,0.022,0.001v-0.002c1.066-0.01,2.081-0.411,2.081-1.359V38.686
		c0-2.602,1.881-4.125,3.765-4.125c1.841,0,3.724,1.441,3.724,4.205v9.934c0,0.68,1.001,1.4,2.081,1.4
		c1.163,0,2.124-0.721,2.124-1.4v-9.934C107.122,33.72,103.758,30.877,100.152,30.877z"/>
</g>
</svg>
