<?xml version="1.0" encoding="utf-8"?>
<!-- Generator: Adobe Illustrator 16.0.0, SVG Export Plug-In . SVG Version: 6.00 Build 0)  -->
<!DOCTYPE svg PUBLIC "-//W3C//DTD SVG 1.1//EN" "http://www.w3.org/Graphics/SVG/1.1/DTD/svg11.dtd">
<svg version="1.1" id="Layer_1" xmlns="http://www.w3.org/2000/svg" xmlns:xlink="http://www.w3.org/1999/xlink" x="0px" y="0px"
	 width="121px" height="43px" viewBox="0 0 121 43" enable-background="new 0 0 121 43" xml:space="preserve">
<g>
	<path fill-rule="evenodd" clip-rule="evenodd" fill="#F4711D" d="M51.385,34.357c0,2.649,0.475,4.51-0.14,5.882
		c-0.564,1.26-2.231,2.595-3.55,2.753c-0.921,0.11-2.961-1.684-2.986-2.665c-0.232-9.208-0.252-18.427,0.026-27.633
		c0.03-0.999,2.309-2.725,3.585-2.763C56.607,9.68,64.91,9.629,73.188,9.987c1.277,0.055,3.385,2.473,3.501,3.927
		c0.425,5.31,0.024,10.68,0.222,16.017c0.124,3.38-1.146,4.569-4.5,4.48C65.643,34.231,58.866,34.357,51.385,34.357z M51.747,27.17
		c6.085,0,11.828,0,17.913,0c0-3.506,0-6.678,0-10.185c-6.084,0-11.828,0-17.913,0C51.747,20.491,51.747,23.663,51.747,27.17z"/>
	<path fill-rule="evenodd" clip-rule="evenodd" fill="#F4711D" d="M17.478,9.502c5.096,0.304,12.322-1.288,14.726,1.412
		c2.74,3.079,1.355,9.98,1.451,15.227c0.15,8.216,0.039,8.219-8.32,8.219c-6.804,0.001-13.612-0.161-20.408,0.062
		c-3.68,0.122-4.862-1.27-4.707-4.825c0.225-5.139,0.21-10.301,0.005-15.44c-0.137-3.441,1.271-4.552,4.551-4.404
		c4.221,0.188,8.457,0.046,12.686,0.046C17.467,9.699,17.473,9.601,17.478,9.502z M26.498,16.987c-6.091,0-11.834,0-17.914,0
		c0,3.508,0,6.681,0,10.181c6.087,0,11.831,0,17.914,0C26.498,23.799,26.498,20.75,26.498,16.987z"/>
	<path fill-rule="evenodd" clip-rule="evenodd" fill="#F4711D" d="M94.957,9.796c6.805,0,13.055-0.193,19.283,0.093
		c2.584,0.119,6.949-2.113,6.856,3.482c-0.086,5.176-4.165,3.081-6.602,3.186c-6.388,0.277-12.796,0.093-19.556,0.093
		c0,3.797,0,6.982,0,10.854c7.232,0,14.176-0.034,21.12,0.02c2.265,0.017,4.966-0.745,5.11,3.159
		c0.154,4.158-2.582,3.677-5.17,3.677c-7.738-0.003-15.48-0.159-23.212,0.066c-3.771,0.11-5.282-0.988-5.151-4.975
		c0.26-7.914,0.092-15.843,0.068-23.765c-0.006-2.488-0.221-4.832,3.516-4.796c3.842,0.038,3.277,2.59,3.364,4.95
		C94.624,6.918,94.781,7.99,94.957,9.796z"/>
</g>
</svg>
