<?xml version="1.0" encoding="utf-8"?>
<!-- Generator: Adobe Illustrator 16.0.0, SVG Export Plug-In . SVG Version: 6.00 Build 0)  -->
<!DOCTYPE svg PUBLIC "-//W3C//DTD SVG 1.1//EN" "http://www.w3.org/Graphics/SVG/1.1/DTD/svg11.dtd">
<svg version="1.1" id="Layer_1" xmlns="http://www.w3.org/2000/svg" xmlns:xlink="http://www.w3.org/1999/xlink" x="0px" y="0px"
	 width="166px" height="187px" viewBox="0 0 166 187" enable-background="new 0 0 166 187" xml:space="preserve">
<g>
	<g>
		<polygon points="20.812,5.083 24.061,44.084 28.377,96.017 32.16,141.482 62.67,99.706 41.745,52.398 		"/>
		<polygon points="33.91,160.888 76.495,131.345 76.51,131.321 		"/>
		<polygon points="41.745,52.398 62.67,99.706 165.537,110.776 130.014,94.022 83.004,71.852 82.912,71.808 		"/>
		<polygon points="82.978,71.817 83.004,71.852 130.014,94.022 151.537,79.077 		"/>
		<polygon points="0.463,32.968 28.377,96.017 24.061,44.084 		"/>
		<polygon points="33.91,160.888 36.102,186.976 76.495,131.345 		"/>
		<line x1="76.495" y1="131.345" x2="76.51" y2="131.321"/>
		<line x1="83.004" y1="71.852" x2="83.148" y2="72.006"/>
		<polygon points="1.641,183.268 33.91,160.888 76.51,131.321 76.567,131.288 76.512,131.281 76.602,131.256 114.115,105.239 
			62.67,99.706 32.16,141.482 32.16,141.492 		"/>
	</g>
	<g>
		
			<linearGradient id="SVGID_1_" gradientUnits="userSpaceOnUse" x1="4943.8525" y1="355.5244" x2="5002.978" y2="350.3516" gradientTransform="matrix(-0.9943 -0.107 -0.107 0.9943 5020.04 251.5659)">
			<stop  offset="0.0914" style="stop-color:#202020"/>
			<stop  offset="0.3298" style="stop-color:#4A4A4A"/>
			<stop  offset="0.7884" style="stop-color:#959697"/>
			<stop  offset="1" style="stop-color:#B3B4B5"/>
		</linearGradient>
		<polygon fill="url(#SVGID_1_)" points="20.812,0.024 24.061,39.027 28.377,90.962 32.16,136.425 62.67,94.647 41.745,47.337 		"/>
		
			<linearGradient id="SVGID_2_" gradientUnits="userSpaceOnUse" x1="4928.3584" y1="421.3135" x2="4967.5488" y2="421.3135" gradientTransform="matrix(-0.9943 -0.107 -0.107 0.9943 5020.04 251.5659)">
			<stop  offset="0" style="stop-color:#1C7FB8"/>
			<stop  offset="1" style="stop-color:#37C4F1"/>
		</linearGradient>
		<polygon fill="url(#SVGID_2_)" points="33.91,155.831 76.495,126.285 76.51,126.265 		"/>
		
			<linearGradient id="SVGID_3_" gradientUnits="userSpaceOnUse" x1="4891.0195" y1="333.29" x2="4933.7651" y2="384.232" gradientTransform="matrix(-0.9943 -0.107 -0.107 0.9943 5020.04 251.5659)">
			<stop  offset="0.2324" style="stop-color:#AB352B"/>
			<stop  offset="0.6481" style="stop-color:#8E261F"/>
			<stop  offset="0.8396" style="stop-color:#63120E"/>
			<stop  offset="0.9936" style="stop-color:#3D0000"/>
		</linearGradient>
		<polygon fill="url(#SVGID_3_)" points="41.745,47.337 62.67,94.647 165.537,105.719 130.014,88.967 83.004,66.794 82.912,66.75 		
			"/>
		
			<linearGradient id="SVGID_4_" gradientUnits="userSpaceOnUse" x1="4880.5713" y1="362.5654" x2="4905.7847" y2="328.0424" gradientTransform="matrix(-0.9943 -0.107 -0.107 0.9943 5020.04 251.5659)">
			<stop  offset="0" style="stop-color:#F2AB2D"/>
			<stop  offset="0.5089" style="stop-color:#ED6F23"/>
			<stop  offset="0.8369" style="stop-color:#914408"/>
			<stop  offset="1" style="stop-color:#6C3200"/>
		</linearGradient>
		<polygon fill="url(#SVGID_4_)" points="82.978,66.759 83.004,66.794 130.014,88.967 151.537,74.017 		"/>
		
			<linearGradient id="SVGID_5_" gradientUnits="userSpaceOnUse" x1="5014.4883" y1="344.5381" x2="4979.9893" y2="344.5381" gradientTransform="matrix(-0.9943 -0.107 -0.107 0.9943 5020.04 251.5659)">
			<stop  offset="0.2324" style="stop-color:#AB352B"/>
			<stop  offset="0.6481" style="stop-color:#8E261F"/>
			<stop  offset="0.8396" style="stop-color:#63120E"/>
			<stop  offset="0.9936" style="stop-color:#3D0000"/>
		</linearGradient>
		<polygon fill="url(#SVGID_5_)" points="0.463,27.91 28.377,90.962 24.061,39.027 		"/>
		
			<linearGradient id="SVGID_6_" gradientUnits="userSpaceOnUse" x1="4923.3252" y1="409.4033" x2="4970.2461" y2="456.3244" gradientTransform="matrix(-0.9943 -0.107 -0.107 0.9943 5020.04 251.5659)">
			<stop  offset="0" style="stop-color:#202020"/>
			<stop  offset="0.0254" style="stop-color:#252525"/>
			<stop  offset="0.2428" style="stop-color:#4F5050"/>
			<stop  offset="0.4541" style="stop-color:#707171"/>
			<stop  offset="0.6553" style="stop-color:#888989"/>
			<stop  offset="0.842" style="stop-color:#969797"/>
			<stop  offset="1" style="stop-color:#9B9C9C"/>
		</linearGradient>
		<polygon fill="url(#SVGID_6_)" points="33.91,155.831 36.102,181.918 76.495,126.285 		"/>
		<line fill="none" x1="76.495" y1="126.285" x2="76.51" y2="126.265"/>
		<line fill="none" x1="83.004" y1="66.794" x2="83.148" y2="66.95"/>
		
			<linearGradient id="SVGID_7_" gradientUnits="userSpaceOnUse" x1="4944.8145" y1="420.0029" x2="4967.562" y2="392.8936" gradientTransform="matrix(-0.9943 -0.107 -0.107 0.9943 5020.04 251.5659)">
			<stop  offset="0" style="stop-color:#F2AB2D"/>
			<stop  offset="0.5089" style="stop-color:#ED6F23"/>
			<stop  offset="0.8369" style="stop-color:#914408"/>
			<stop  offset="1" style="stop-color:#6C3200"/>
		</linearGradient>
		<polygon fill="url(#SVGID_7_)" points="1.641,178.21 33.91,155.831 76.51,126.265 76.567,126.229 76.512,126.222 76.602,126.2 
			114.115,100.183 62.67,94.647 32.16,136.425 32.16,136.437 		"/>
	</g>
</g>
</svg>
