<?xml version="1.0" encoding="utf-8"?>
<!-- Generator: Adobe Illustrator 16.0.0, SVG Export Plug-In . SVG Version: 6.00 Build 0)  -->
<!DOCTYPE svg PUBLIC "-//W3C//DTD SVG 1.1//EN" "http://www.w3.org/Graphics/SVG/1.1/DTD/svg11.dtd">
<svg version="1.1" id="Layer_1" xmlns="http://www.w3.org/2000/svg" xmlns:xlink="http://www.w3.org/1999/xlink" x="0px" y="0px"
	 width="111px" height="30.6px" viewBox="0 0 111 30.6" enable-background="new 0 0 111 30.6" xml:space="preserve">
<g>
	<g>
		<path fill="#F2F2F2" d="M47.678,18.855v3.66c0,4.135-3.855,7.913-8.23,7.913c-4.415,0-8.233-3.737-8.233-7.913v-3.66
			c0-4.175,3.699-7.833,8.233-7.833C43.823,11.022,47.678,14.561,47.678,18.855z M43.503,18.855c0-2.066-1.829-4.134-4.056-4.134
			c-2.267,0-4.057,2.068-4.057,4.134v3.66c0,2.149,1.79,4.217,4.057,4.217c2.227,0,4.056-2.067,4.056-4.217V18.855z"/>
		<path fill="#F2F2F2" d="M61.279,18.54l6.243,8.985c0.159,0.239,0.238,0.518,0.238,0.718c0,0.994-1.352,2.106-2.347,2.106
			c-0.438,0-0.835-0.198-1.113-0.596l-5.848-8.63l-2.902,2.624v4.973c0,0.675-0.955,1.391-2.148,1.391
			c-1.193,0-2.027-0.716-2.027-1.391V1.398c0-0.796,0.834-1.353,2.027-1.353c1.193,0,2.148,0.556,2.148,1.353v17.699l8.312-7.637
			c0.239-0.24,0.558-0.358,0.873-0.358c0.916,0,2.031,1.036,2.031,1.99c0,0.317-0.12,0.635-0.358,0.874L61.279,18.54z"/>
		<path fill="#F2F2F2" d="M79.412,25.062c0-4.177-9.586-1.71-9.586-8.312c0-2.743,1.79-5.727,6.801-5.727
			c2.982,0,5.965,1.073,5.965,2.346c0,0.597-0.597,2.029-1.59,2.029c-0.836,0-2.068-1.154-4.296-1.154
			c-2.345,0-3.221,1.312-3.221,2.306c0,3.5,9.664,1.193,9.664,8.353c0,3.38-2.506,5.526-6.998,5.526
			c-3.939,0-6.841-1.669-6.841-3.183c0-0.714,0.596-1.867,1.432-1.867c1.033,0,1.869,1.83,5.289,1.83
			C78.655,27.209,79.412,26.134,79.412,25.062z"/>
		<path fill="#F2F2F2" d="M90.981,4.341c0,1.153-1.072,2.188-2.426,2.188c-1.352,0-2.425-1.035-2.425-2.188
			c0-1.192,1.073-2.188,2.425-2.188C89.909,2.153,90.981,3.148,90.981,4.341z M90.665,12.613v16.107
			c0,0.675-0.915,1.391-2.109,1.391c-1.191,0-2.067-0.716-2.067-1.391V12.613c0-0.796,0.876-1.353,2.067-1.353
			C89.75,11.26,90.665,11.817,90.665,12.613z"/>
		<path fill="#F2F2F2" d="M110.508,18.38c0,3.3-1.83,3.42-3.62,3.42h-8.391v0.914c0,2.665,2.108,4.336,5.171,4.336
			c2.822,0,3.778-1.513,4.852-1.513c0.994,0,1.63,1.154,1.63,1.87c0,1.193-2.585,3.021-6.602,3.021
			c-5.409,0-9.227-3.183-9.227-7.913v-3.778c0-4.176,3.698-7.715,8.272-7.715C106.849,11.022,110.508,14.044,110.508,18.38z
			 M105.1,19.215c1.152,0,1.47-0.239,1.47-1.192c0-2.108-1.749-3.818-4.015-3.818c-2.188,0-4.058,1.551-4.058,3.738v1.272H105.1z"/>
	</g>
	<path fill="#F2F2F2" d="M20.857,11.022c-2.295,0-5.377,1.261-6.779,3.938c-1.4-2.677-4.484-3.938-6.779-3.938
		c-3.579,0-6.92,2.823-6.92,7.833v9.865c0,0.675,0.956,1.391,2.108,1.391c1.075,0,2.068-0.716,2.068-1.391v-9.865
		c0-2.744,1.869-4.175,3.698-4.175c1.869,0,3.739,1.512,3.739,4.096v9.983c0,0.942,1.007,1.34,2.065,1.351v0.001
		c0.008,0,0.014,0,0.021,0c0.008,0,0.015,0,0.021,0V30.11c1.059-0.011,2.066-0.408,2.066-1.351v-9.983
		c0-2.584,1.868-4.096,3.738-4.096c1.829,0,3.698,1.431,3.698,4.175v9.865c0,0.675,0.995,1.391,2.067,1.391
		c1.155,0,2.109-0.716,2.109-1.391v-9.865C27.778,13.846,24.437,11.022,20.857,11.022z"/>
</g>
</svg>
